<svg width="24" height="25" viewBox="0 0 24 25" fill="none" xmlns="http://www.w3.org/2000/svg">
<path d="M14.1065 10.8164C14.1065 9.6533 13.1603 8.70703 11.9972 8.70703C10.834 8.70703 9.88778 9.6533 9.88778 10.8164C9.88778 11.8708 10.2832 12.8643 11.004 13.6277L9.39062 15.2411L10.385 16.2354L11.9972 14.6233L13.6094 16.2355L14.6037 15.2411L12.9903 13.6277C13.711 12.8643 14.1065 11.8708 14.1065 10.8164ZM11.9972 12.6307C11.5428 12.1337 11.294 11.4942 11.294 10.8165C11.294 10.4288 11.6095 10.1133 11.9972 10.1133C12.3849 10.1133 12.7003 10.4288 12.7003 10.8165C12.7003 11.4941 12.4515 12.1336 11.9972 12.6307Z" fill="white"/>
<path d="M17.625 1.67578C15.2178 1.67578 13.0667 3.03066 12 5.09916C10.9333 3.03061 8.78222 1.67578 6.375 1.67578C2.51855 1.67578 0 4.78983 0 8.73928C0 13.7936 4.27664 16.5744 9.79688 21.2991C10.2249 21.6655 10.3287 21.7579 12.1406 23.3269C12.7525 22.799 12.7732 22.7737 14.8688 20.9773C20.9484 15.7658 24 13.1499 24 8.73933C24 4.78936 21.4809 1.67578 17.625 1.67578ZM13.9536 19.9096C13.3707 20.4093 12.7717 20.9228 12.1413 21.4668C11.3415 20.7747 11.0972 20.5603 10.6106 20.1445C5.23509 15.5511 1.40625 13.0473 1.40625 8.73933C1.40625 5.40839 3.44948 3.08208 6.375 3.08208C8.62233 3.08208 10.5825 4.59984 11.1419 6.77297L11.2777 7.30083H12.7222L12.858 6.77297C13.4174 4.59984 15.3776 3.08208 17.6249 3.08208C20.5504 3.08208 22.5937 5.40844 22.5937 8.73933C22.5938 12.5175 19.7984 14.8994 13.9536 19.9096Z" fill="white"/>
</svg>
