<svg width="102" height="111" viewBox="0 0 102 111" fill="none" xmlns="http://www.w3.org/2000/svg">
<g clip-path="url(#clip0_0_1862)">
<path d="M139.431 0.360352H-27.5693V110.36H139.431V0.360352Z" fill="white"/>
<path d="M55.9324 92.7619C76.8383 92.7619 93.7858 76.0174 93.7858 55.3619C93.7858 34.7065 76.8383 17.9619 55.9324 17.9619C35.0266 17.9619 18.0791 34.7065 18.0791 55.3619C18.0791 76.0174 35.0266 92.7619 55.9324 92.7619Z" fill="black" fill-opacity="0.5"/>
<path d="M67.0649 86.1596C84.2815 86.1596 98.2383 72.3699 98.2383 55.3596C98.2383 38.3492 84.2815 24.5596 67.0649 24.5596C49.8484 24.5596 35.8916 38.3492 35.8916 55.3596C35.8916 72.3699 49.8484 86.1596 67.0649 86.1596Z" fill="white"/>
</g>
<defs>
<clipPath id="clip0_0_1862">
<rect width="101" height="110" fill="white" transform="translate(0.430664 0.360352)"/>
</clipPath>
</defs>
</svg>
