<svg width="24" height="25" viewBox="0 0 24 25" fill="none" xmlns="http://www.w3.org/2000/svg">
<g clip-path="url(#clip0_0_862)">
<path d="M19.3313 2.88734C18.1256 3.19416 16.8855 3.40125 15.6455 3.5029L12.1494 3.78942C11.1302 3.7965 10.1441 4.16474 9.36947 4.82817L9.35137 4.84368L7.00143 7.14956C5.79586 6.8802 4.53024 7.00946 3.36241 7.54457C1.65874 8.32507 0.472865 9.82709 0.108846 11.6653C-0.287711 13.6679 0.416133 15.7518 1.94563 17.1038L8.95285 23.298L15.96 17.1038C17.0285 16.1592 17.7276 14.7545 17.8781 13.2817C18.1176 13.1817 18.4372 13.1365 18.8721 13.1398C18.8911 13.14 18.9098 13.1401 18.9288 13.1401C20.7404 13.14 22.4627 12.4436 23.7838 11.1756L24.0001 10.968V1.69922L19.3313 2.88734ZM15.0285 16.05L8.95285 21.4206L2.87724 16.05C1.72096 15.0278 1.1889 13.4524 1.48868 11.9385C1.76386 10.5488 2.66035 9.41337 3.94829 8.82327C5.23624 8.23317 6.68162 8.29572 7.91382 8.99483L8.95285 9.58436L9.99187 8.99483C11.6683 8.04366 13.6743 8.26393 15.019 9.47212L12.2546 11.475C11.7757 11.8012 11.4586 12.295 11.361 12.8668C11.2627 13.4431 11.401 14.0186 11.7506 14.4872C12.1596 15.0355 12.8017 15.3344 13.4539 15.3344C13.7912 15.3344 14.1313 15.2545 14.4432 15.0877L16.2699 14.1245C16.0246 14.8724 15.5954 15.5488 15.0285 16.05ZM22.5935 10.3582C21.5563 11.2579 20.2515 11.7438 18.8834 11.7333C18.4167 11.7295 17.725 11.7623 17.1151 12.0886L13.7854 13.8444L13.7808 13.8468C13.4742 14.0113 13.0861 13.9251 12.878 13.6461C12.7609 13.4892 12.7146 13.2965 12.7475 13.1034C12.7805 12.9104 12.8881 12.7439 13.0506 12.6347L13.0609 12.6278L18.5878 8.62345L17.7625 7.48441L16.178 8.6324C14.3931 6.84241 11.6049 6.46254 9.29774 7.77149L8.95285 7.96719L8.60796 7.77149C8.55859 7.7435 8.50898 7.71635 8.45914 7.68986L10.3016 5.88192C10.8265 5.43936 11.4924 5.19593 12.1795 5.19593H12.2082L15.7605 4.90482C17.0785 4.7968 18.3967 4.57662 19.6782 4.25049L22.5936 3.50857V10.3582H22.5935Z" fill="white"/>
</g>
<defs>
<clipPath id="clip0_0_862">
<rect width="24" height="24" fill="white" transform="translate(0 0.5)"/>
</clipPath>
</defs>
</svg>
