<svg width="24" height="25" viewBox="0 0 24 25" fill="none" xmlns="http://www.w3.org/2000/svg">
<path d="M16.4103 1.99609C14.8269 1.99609 13.2814 2.49461 12 3.4097C10.7185 2.49461 9.17311 1.99609 7.58963 1.99609C3.40467 1.99609 0 5.40077 0 9.58576C0 11.2271 0.567281 12.8567 1.64053 14.2984C3.3878 16.6457 11.6662 22.7565 12 23.0024C12.3338 22.7565 20.6122 16.6457 22.3595 14.2984C23.4327 12.8567 24 11.227 24 9.58576C24 5.40077 20.5953 1.99609 16.4103 1.99609ZM7.75481 17.9136V17.9742C6.46322 16.94 5.14416 15.8412 4.14816 14.9123C4.39805 13.6005 5.55286 12.6055 6.93633 12.6055C8.12297 12.6055 9.17105 13.3467 9.58608 14.4235C8.48039 15.1906 7.75481 16.4688 7.75481 17.9136ZM4.83563 9.09845C4.83563 7.94012 5.778 6.99775 6.93637 6.99775C8.09475 6.99775 9.03713 7.94012 9.03713 9.09845C9.03713 10.2568 8.09475 11.1992 6.93637 11.1992C5.778 11.1992 4.83563 10.2568 4.83563 9.09845ZM14.8389 19.085C13.6205 20.0356 12.5583 20.8357 12 21.2529C11.4417 20.8358 10.3795 20.0356 9.16106 19.0851V17.9136C9.16106 16.3482 10.4346 15.0747 12 15.0747C13.5654 15.0747 14.8389 16.3482 14.8389 17.9136V19.085ZM9.89925 11.5676C9.89925 10.4093 10.8416 9.46694 12 9.46694C13.1584 9.46694 14.1007 10.4093 14.1007 11.5676C14.1007 12.726 13.1583 13.6683 12 13.6683C10.8417 13.6683 9.89925 12.726 9.89925 11.5676ZM16.2451 17.9741V17.9136C16.2451 16.4688 15.5196 15.1907 14.4138 14.4235C14.8289 13.3467 15.877 12.6055 17.0636 12.6055C18.4471 12.6055 19.6019 13.6004 19.8518 14.9122C18.8558 15.8411 17.5368 16.9399 16.2451 17.9741ZM14.9629 9.09845C14.9629 7.94012 15.9052 6.99775 17.0636 6.99775C18.222 6.99775 19.1643 7.94012 19.1643 9.09845C19.1643 10.2568 18.222 11.1992 17.0636 11.1992C15.9053 11.1992 14.9629 10.2568 14.9629 9.09845ZM21.2315 13.4587C21.1571 13.5586 21.0688 13.6667 20.9692 13.7811C20.6202 12.9648 20.0227 12.2792 19.272 11.8202C20.0637 11.1767 20.5706 10.1958 20.5706 9.09845C20.5706 7.16472 18.9974 5.5915 17.0636 5.5915C15.349 5.5915 13.9188 6.82872 13.6165 8.45702C13.1324 8.20441 12.5828 8.06069 12 8.06069C11.4172 8.06069 10.8676 8.20441 10.3835 8.45702C10.0811 6.82867 8.65097 5.5915 6.93637 5.5915C5.00264 5.5915 3.42938 7.16472 3.42938 9.09845C3.42938 10.1958 3.93633 11.1766 4.72795 11.8202C3.97739 12.2792 3.37978 12.9648 3.0308 13.7811C2.93128 13.6667 2.84292 13.5586 2.76853 13.4587C1.8773 12.2615 1.40625 10.9222 1.40625 9.58576C1.40625 6.17622 4.18008 3.40234 7.58963 3.40234C9.03473 3.40234 10.441 3.91197 11.5493 4.83742L12 5.21364L12.4507 4.83742C13.559 3.91197 14.9653 3.40234 16.4104 3.40234C19.8199 3.40234 22.5938 6.17617 22.5938 9.58576C22.5938 10.9222 22.1227 12.2615 21.2315 13.4587Z" fill="white"/>
</svg>
